<mxfile host="app.diagrams.net" modified="2023-12-26T05:31:55.206Z" agent="Mozilla/5.0 (Macintosh; Intel Mac OS X 10_15_7) AppleWebKit/537.36 (KHTML, like Gecko) Chrome/120.0.0.0 Safari/537.36 Edg/120.0.0.0" version="22.1.11" etag="NnfpqCTlPtB2ytZ9mULq" type="github">
  <diagram name="第 1 页" id="goYHLil8WyDpOzmgTZdG">
    <mxGraphModel>
      <root>
        <mxCell id="0" />
        <mxCell id="1" parent="0" />
      </root>
    </mxGraphModel>
  </diagram>
</mxfile>
